/* XPM */
static char *fd469a8551244943fd42519ee02c19fdyQYtXZkzcWf5Mc13[] = {
/* columns rows colors chars-per-pixel */
"16 16 3 1 ",
"  c black",
". c #FFF200",
"X c white",
/* pixels */
"XXXXXXXXXXXXXXXX",
"X..............X",
"X..............X",
"X..   ....   ..X",
"X..   ....   ..X",
"X..   ....   ..X",
"X..............X",
"X..............X",
"X..............X",
"X..  ......  ..X",
"X..  ......  ..X",
"X..          ..X",
"X..          ..X",
"X..............X",
"X..............X",
"XXXXXXXXXXXXXXXX"
};
